<?xml version="1.0" standalone="no"?>
<!DOCTYPE svg PUBLIC "-//W3C//DTD SVG 20010904//EN"
 "http://www.w3.org/TR/2001/REC-SVG-20010904/DTD/svg10.dtd">
<svg version="1.0" xmlns="http://www.w3.org/2000/svg"
 width="223.000000pt" height="225.000000pt" viewBox="0 0 223.000000 225.000000"
 preserveAspectRatio="xMidYMid meet">

<g transform="translate(0.000000,225.000000) scale(0.100000,-0.100000)"
fill="#000000" stroke="none">
<path d="M2 1123 l3 -1128 2 1122 3 1123 1113 3 1112 2 -1117 3 -1118 2 2
-1127z"/>
<path d="M945 1837 c-16 -8 -44 -12 -60 -10 -24 4 -43 -4 -91 -40 -114 -84
-211 -243 -253 -413 -56 -233 -85 -518 -62 -623 14 -66 63 -175 100 -221 16
-19 31 -45 35 -56 6 -20 -6 -132 -20 -181 -4 -13 -2 -23 3 -23 13 0 31 61 39
133 4 31 11 57 16 57 5 0 25 -7 46 -16 20 -8 79 -26 131 -40 187 -48 350 -24
512 76 57 35 81 45 88 37 24 -30 51 -140 51 -209 0 -76 11 -115 24 -83 10 26
7 146 -5 190 -5 22 -19 64 -31 93 -18 46 -19 55 -6 70 81 95 99 221 53 357
-15 44 -52 131 -81 194 -30 63 -54 118 -54 123 0 5 15 24 33 41 37 35 73 117
63 142 -9 25 -24 9 -56 -61 -21 -48 -34 -64 -49 -64 -22 0 -21 -3 -41 178 -12
106 -46 200 -91 255 -64 78 -220 127 -294 94z m-51 -53 l-7 -27 39 27 c48 32
102 34 179 5 75 -28 116 -71 154 -164 25 -58 33 -97 38 -163 7 -116 26 -189
78 -297 141 -297 158 -381 103 -492 -12 -24 -37 -62 -55 -83 -41 -47 -166
-120 -257 -150 -124 -41 -362 -15 -491 53 -72 37 -142 150 -171 274 -26 110 1
360 67 617 38 146 142 302 254 379 38 26 70 47 72 47 2 0 0 -12 -3 -26z"/>
<path d="M945 1420 c-3 -5 -1 -10 4 -10 6 0 11 5 11 10 0 6 -2 10 -4 10 -3 0
-8 -4 -11 -10z"/>
<path d="M1152 1419 c2 -6 8 -10 13 -10 5 0 11 4 13 10 2 6 -4 11 -13 11 -9 0
-15 -5 -13 -11z"/>
<path d="M790 1370 c0 -21 -7 -60 -16 -86 -18 -53 -11 -69 16 -36 22 26 35
100 26 137 -10 39 -26 30 -26 -15z"/>
<path d="M1130 1216 c0 -63 -31 -75 -57 -21 -9 19 -20 35 -25 35 -12 0 -10 -7
12 -49 35 -69 73 -62 86 17 4 28 3 42 -5 42 -6 0 -11 -11 -11 -24z"/>
<path d="M1193 3 c181 -2 473 -2 650 0 177 1 30 2 -328 2 -357 0 -502 -1 -322
-2z"/>
</g>
</svg>
